With: Robert De Niro, Christopher Walken en Meryl Streep

Michael, Steven en Nick zijn drie jonge fabrieksarbeiders uit Pennsylvania die opgeroepen worden om in Vietnam te vechten. Voor ze gaan trouwt Steven de zwangere Angela, en hun huwelijksfeest is gelijk ook het afscheidsfeest van de drie jongens. Na een tijdje in de oorlog gevochten te hebben vallen de vrienden in de handen van de Vietcong, en worden ze gevangen genomen in een kamp waar ze gedwongen worden om Russisch roulette te spelen tegen elkaar.

An in-depth examination of the way that the Vietnam war affects the lives of people in a small industrial town in the USA. 

------------------ Dutch Friends ------------------
You can find my Friends at: http://www.Film-Test.nl 
------ They got my dutchs subs ---- and more ------

General:

Complete name                    : The Deer Hunter\The Deer Hunter.avi
Format                           : AVI
Format/Info                      : Audio Video Interleave
File size                        : 1.77 GiB
Duration                         : 2h 56mn
Overall bit rate                 : 1 437 Kbps

Video:

Format                           : MPEG-4 Visual
Format profile                   : Simple@L3
Format settings, BVOP            : No
Format settings, QPel            : No
Format settings, GMC             : No warppoints
Format settings, Matrix          : Default (H.263)
Codec ID                         : XVID
Codec ID/Hint                    : XviD
Duration                         : 2h 56mn
Bit rate                         : 1 202 Kbps
Width                            : 720 pixels
Height                           : 328 pixels
Display aspect ratio             : 2.2:1
Frame rate                       : 25.000 fps
Color space                      : YUV
Chroma subsampling               : 4:2:0
Bit depth                        : 8 bits
Scan type                        : Progressive
Bits/(Pixel*Frame)               : 0.204
Stream size                      : 1.48 GiB (84%)
Writing library                  : XviD 1.1.2 (UTC 2006-11-01)

Audio:

Format                           : AC-3
Format/Info                      : Audio Coding 3
Mode extension                   : CM (complete main)
Codec ID                         : 2000
Duration                         : 2h 56mn
Bit rate mode                    : Constant
Bit rate                         : 224 Kbps
Channel(s)                       : 2 channels
Channel positions                : Front: L R
Sampling rate                    : 48.0 KHz
Bit depth                        : 16 bits
Stream size                      : 282 MiB (16%)
Alignment                        : Aligned on interleaves
Interleave, duration             : 32 ms (0.80 video frame)
Interleave, preload duration     : 32 ms

